<svg width="127" height="34" viewBox="0 0 127 34" fill="none" xmlns="http://www.w3.org/2000/svg">
<g clip-path="url(#clip0)">
<path d="M29.0208 4.97917C25.81 1.76833 21.5408 0 17 0C12.4592 0 8.19002 1.76833 4.97917 4.97917C1.76833 8.19002 0 12.4592 0 17C0 21.5408 1.76833 25.81 4.97917 29.0208C8.19002 32.2317 12.4592 34 17 34C20.1086 34 23.1504 33.1528 25.7962 31.55C26.4237 31.17 26.6242 30.3534 26.2442 29.7261C25.8642 29.0986 25.0473 28.8981 24.4201 29.2782C22.1893 30.6294 19.6233 31.3438 17 31.3438C9.53864 31.3438 3.39061 25.617 2.71825 18.3281H11.1723C11.778 20.9865 14.1609 22.9766 17 22.9766C19.8391 22.9766 22.222 20.9865 22.8277 18.3281H31.2815C31.0605 20.6853 30.2525 22.9556 28.9116 24.9612C28.5038 25.5708 28.6678 26.3957 29.2776 26.8035C29.8872 27.211 30.7121 27.0471 31.1199 26.4375C33.0039 23.6191 34 20.3556 34 17C34 12.4592 32.2317 8.19002 29.0208 4.97917ZM17 2.65625C24.4614 2.65625 30.6094 8.38301 31.2818 15.6719H22.8277C22.222 13.0135 19.8391 11.0234 17 11.0234C14.1609 11.0234 11.778 13.0135 11.1723 15.6719H2.71825C3.39061 8.38301 9.53864 2.65625 17 2.65625ZM17 20.3203C15.1692 20.3203 13.6797 18.8308 13.6797 17C13.6797 15.1692 15.1692 13.6797 17 13.6797C18.8308 13.6797 20.3203 15.1692 20.3203 17C20.3203 18.8308 18.8308 20.3203 17 20.3203Z" fill="white"/>
</g>
<path d="M52.938 13.172V15.09H50.334V23H47.94V15.09H45.336V13.172H52.938ZM56.5335 16.49C56.8135 16.0607 57.1635 15.7247 57.5835 15.482C58.0035 15.23 58.4702 15.104 58.9835 15.104V17.638H58.3255C57.7282 17.638 57.2802 17.7687 56.9815 18.03C56.6828 18.282 56.5335 18.73 56.5335 19.374V23H54.1395V15.188H56.5335V16.49ZM59.6518 19.08C59.6518 18.2773 59.8011 17.5727 60.0998 16.966C60.4078 16.3593 60.8231 15.8927 61.3458 15.566C61.8684 15.2393 62.4518 15.076 63.0958 15.076C63.6464 15.076 64.1271 15.188 64.5378 15.412C64.9578 15.636 65.2798 15.93 65.5038 16.294V15.188H67.8978V23H65.5038V21.894C65.2704 22.258 64.9438 22.552 64.5238 22.776C64.1131 23 63.6324 23.112 63.0818 23.112C62.4471 23.112 61.8684 22.9487 61.3458 22.622C60.8231 22.286 60.4078 21.8147 60.0998 21.208C59.8011 20.592 59.6518 19.8827 59.6518 19.08ZM65.5038 19.094C65.5038 18.4967 65.3358 18.0253 64.9998 17.68C64.6731 17.3347 64.2718 17.162 63.7958 17.162C63.3198 17.162 62.9138 17.3347 62.5778 17.68C62.2511 18.016 62.0878 18.4827 62.0878 19.08C62.0878 19.6773 62.2511 20.1533 62.5778 20.508C62.9138 20.8533 63.3198 21.026 63.7958 21.026C64.2718 21.026 64.6731 20.8533 64.9998 20.508C65.3358 20.1627 65.5038 19.6913 65.5038 19.094ZM70.8337 14.376C70.4137 14.376 70.0684 14.2547 69.7977 14.012C69.5364 13.76 69.4057 13.452 69.4057 13.088C69.4057 12.7147 69.5364 12.4067 69.7977 12.164C70.0684 11.912 70.4137 11.786 70.8337 11.786C71.2444 11.786 71.5804 11.912 71.8417 12.164C72.1124 12.4067 72.2477 12.7147 72.2477 13.088C72.2477 13.452 72.1124 13.76 71.8417 14.012C71.5804 14.2547 71.2444 14.376 70.8337 14.376ZM72.0237 15.188V23H69.6297V15.188H72.0237ZM78.5186 15.104C79.4333 15.104 80.1613 15.4027 80.7026 16C81.2533 16.588 81.5286 17.4 81.5286 18.436V23H79.1486V18.758C79.1486 18.2353 79.0133 17.8293 78.7426 17.54C78.472 17.2507 78.108 17.106 77.6506 17.106C77.1933 17.106 76.8293 17.2507 76.5586 17.54C76.288 17.8293 76.1526 18.2353 76.1526 18.758V23H73.7586V15.188H76.1526V16.224C76.3953 15.8787 76.722 15.608 77.1326 15.412C77.5433 15.2067 78.0053 15.104 78.5186 15.104ZM90.5562 18.968C90.5562 19.192 90.5422 19.4253 90.5142 19.668H85.0962C85.1336 20.1533 85.2876 20.5267 85.5582 20.788C85.8382 21.04 86.1789 21.166 86.5802 21.166C87.1776 21.166 87.5929 20.914 87.8262 20.41H90.3742C90.2436 20.9233 90.0056 21.3853 89.6602 21.796C89.3242 22.2067 88.8996 22.5287 88.3862 22.762C87.8729 22.9953 87.2989 23.112 86.6642 23.112C85.8989 23.112 85.2176 22.9487 84.6202 22.622C84.0229 22.2953 83.5562 21.8287 83.2202 21.222C82.8842 20.6153 82.7162 19.906 82.7162 19.094C82.7162 18.282 82.8796 17.5727 83.2062 16.966C83.5422 16.3593 84.0089 15.8927 84.6062 15.566C85.2036 15.2393 85.8896 15.076 86.6642 15.076C87.4202 15.076 88.0922 15.2347 88.6802 15.552C89.2682 15.8693 89.7256 16.322 90.0522 16.91C90.3882 17.498 90.5562 18.184 90.5562 18.968ZM88.1062 18.338C88.1062 17.9273 87.9662 17.6007 87.6862 17.358C87.4062 17.1153 87.0562 16.994 86.6362 16.994C86.2349 16.994 85.8942 17.1107 85.6142 17.344C85.3436 17.5773 85.1756 17.9087 85.1102 18.338H88.1062ZM99.1832 18.968C99.1832 19.192 99.1692 19.4253 99.1412 19.668H93.7232C93.7605 20.1533 93.9145 20.5267 94.1852 20.788C94.4652 21.04 94.8058 21.166 95.2072 21.166C95.8045 21.166 96.2198 20.914 96.4532 20.41H99.0012C98.8705 20.9233 98.6325 21.3853 98.2872 21.796C97.9512 22.2067 97.5265 22.5287 97.0132 22.762C96.4998 22.9953 95.9258 23.112 95.2912 23.112C94.5258 23.112 93.8445 22.9487 93.2472 22.622C92.6498 22.2953 92.1832 21.8287 91.8472 21.222C91.5112 20.6153 91.3432 19.906 91.3432 19.094C91.3432 18.282 91.5065 17.5727 91.8332 16.966C92.1692 16.3593 92.6358 15.8927 93.2332 15.566C93.8305 15.2393 94.5165 15.076 95.2912 15.076C96.0472 15.076 96.7192 15.2347 97.3072 15.552C97.8952 15.8693 98.3525 16.322 98.6792 16.91C99.0152 17.498 99.1832 18.184 99.1832 18.968ZM96.7332 18.338C96.7332 17.9273 96.5932 17.6007 96.3132 17.358C96.0332 17.1153 95.6832 16.994 95.2632 16.994C94.8618 16.994 94.5212 17.1107 94.2412 17.344C93.9705 17.5773 93.8025 17.9087 93.7372 18.338H96.7332ZM104.128 13.172C105.164 13.172 106.069 13.3773 106.844 13.788C107.619 14.1987 108.216 14.7773 108.636 15.524C109.065 16.2613 109.28 17.1153 109.28 18.086C109.28 19.0473 109.065 19.9013 108.636 20.648C108.216 21.3947 107.614 21.9733 106.83 22.384C106.055 22.7947 105.155 23 104.128 23H100.446V13.172H104.128ZM103.974 20.928C104.879 20.928 105.584 20.6807 106.088 20.186C106.592 19.6913 106.844 18.9913 106.844 18.086C106.844 17.1807 106.592 16.476 106.088 15.972C105.584 15.468 104.879 15.216 103.974 15.216H102.84V20.928H103.974ZM117.982 18.968C117.982 19.192 117.968 19.4253 117.94 19.668H112.522C112.559 20.1533 112.713 20.5267 112.984 20.788C113.264 21.04 113.605 21.166 114.006 21.166C114.603 21.166 115.019 20.914 115.252 20.41H117.8C117.669 20.9233 117.431 21.3853 117.086 21.796C116.75 22.2067 116.325 22.5287 115.812 22.762C115.299 22.9953 114.725 23.112 114.09 23.112C113.325 23.112 112.643 22.9487 112.046 22.622C111.449 22.2953 110.982 21.8287 110.646 21.222C110.31 20.6153 110.142 19.906 110.142 19.094C110.142 18.282 110.305 17.5727 110.632 16.966C110.968 16.3593 111.435 15.8927 112.032 15.566C112.629 15.2393 113.315 15.076 114.09 15.076C114.846 15.076 115.518 15.2347 116.106 15.552C116.694 15.8693 117.151 16.322 117.478 16.91C117.814 17.498 117.982 18.184 117.982 18.968ZM115.532 18.338C115.532 17.9273 115.392 17.6007 115.112 17.358C114.832 17.1153 114.482 16.994 114.062 16.994C113.661 16.994 113.32 17.1107 113.04 17.344C112.769 17.5773 112.601 17.9087 112.536 18.338H115.532ZM123.865 23L122.367 20.83L121.107 23H118.517L121.093 19.01L118.447 15.188H121.135L122.633 17.344L123.893 15.188H126.483L123.865 19.122L126.553 23H123.865Z" fill="white"/>
<defs>
<clipPath id="clip0">
<rect width="34" height="34" fill="white"/>
</clipPath>
</defs>
</svg>
